<svg width="124" height="33" viewBox="0 0 124 33" fill="none" xmlns="http://www.w3.org/2000/svg">
<path d="M16.4434 16.8176C16.53 16.979 16.6178 17.1425 16.7084 17.3084C16.7278 17.2761 16.7453 17.2473 16.7613 17.221C16.8001 17.1573 16.83 17.108 16.8569 17.0572C18.035 14.5898 19.7121 12.5292 22.2325 11.1655C22.5592 10.9882 22.4641 10.8084 22.3544 10.601C22.3475 10.5879 22.3405 10.5747 22.3335 10.5613C21.2818 8.54559 19.8289 6.81995 18.0065 5.39338C17.36 4.88868 17.1638 4.64342 16.9561 4.63415C16.7477 4.62486 16.5278 4.85293 15.8304 5.29469C13.749 6.61658 12.1035 8.32129 11.0612 10.5075C11.0528 10.5251 11.0443 10.5426 11.0358 10.5599C10.9239 10.7886 10.8272 10.9862 11.2002 11.1864C13.2468 12.281 14.7534 13.881 15.8872 15.81C16.0787 16.138 16.2585 16.4729 16.4434 16.8176Z" fill="#3FA0D9"/>
<path d="M3.31046 10.5559C6.51307 10.6067 9.47248 11.2079 12.0592 12.9903C14.1785 14.4498 15.4861 16.4326 16.1872 18.7983C16.2314 18.9448 16.2377 19.0824 16.1998 19.2319C15.6124 21.469 15.5397 23.7449 15.6471 26.0328C15.6629 26.3887 15.5682 26.5263 15.1986 26.5771C10.3284 27.271 3.08621 24.6003 0.796383 18.8731C-0.230094 16.307 -0.185876 13.7051 0.480544 11.0763C0.543711 10.8221 0.685839 10.7443 0.941668 10.7114C1.69447 10.6199 2.44728 10.5901 3.14717 10.5624L3.31046 10.5559Z" fill="#3FA0D9"/>
<path d="M16.7119 23.5791C16.7213 20.9354 17.0782 18.6235 18.2626 16.4971C19.9303 13.4974 22.6496 11.7987 26.0638 11.0122C28.2116 10.5157 30.3814 10.4619 32.5701 10.7101C32.9383 10.7504 32.9899 10.9545 33.0525 11.202L33.0597 11.2305C34.7084 17.5738 31.7932 23.0767 25.4069 25.5829C23.016 26.519 20.5367 26.9826 17.9405 26.4981C16.9487 26.3127 16.9298 26.3067 16.8256 25.3766C16.7688 24.8822 16.748 24.3862 16.7313 23.9909C16.7248 23.8363 16.719 23.6968 16.7119 23.5791Z" fill="#3FA0D9"/>
<path d="M51.6984 26.3994C49.941 26.3994 48.4436 26.1085 47.2025 25.5266C45.965 24.9448 44.9509 24.1898 44.171 23.2582C43.3875 22.3266 42.8127 21.3189 42.443 20.2279C42.0732 19.1405 41.8901 18.0808 41.8901 17.0487V16.5015C41.8901 15.3864 42.0805 14.2782 42.4576 13.1734C42.8347 12.0686 43.4205 11.0678 44.2113 10.1673C45.0021 9.27037 46.0053 8.55002 47.2171 8.00976C48.4289 7.4695 49.8788 7.19937 51.5666 7.19937C53.2873 7.19937 54.7993 7.49721 56.0991 8.09634C57.3988 8.69548 58.4349 9.52664 59.211 10.5898C59.9835 11.6531 60.4485 12.8998 60.6096 14.3301H56.8386C56.6263 13.0834 56.0441 12.131 55.0849 11.4764C54.1257 10.8184 52.9541 10.4929 51.5666 10.4929C50.2852 10.4929 49.2088 10.763 48.3374 11.3033C47.4661 11.8435 46.8071 12.5881 46.3604 13.5336C45.9137 14.4825 45.6867 15.5699 45.6867 16.7994C45.6867 17.9976 45.9137 19.0678 46.3714 20.0167C46.829 20.9656 47.5063 21.7171 48.3997 22.2747C49.2966 22.8323 50.395 23.1093 51.6947 23.1093C53.1372 23.1093 54.3527 22.7734 55.3449 22.0981C56.337 21.4262 56.9411 20.4808 57.1498 19.2686H60.9208C60.7451 20.5812 60.2764 21.7795 59.5112 22.86C58.7461 23.9405 57.71 24.7994 56.3993 25.4401C55.0922 26.0773 53.5253 26.3994 51.6984 26.3994Z" fill="#111111"/>
<path d="M63.7985 25.925V7.72241H67.4633V14.6557C67.8331 13.7899 68.3786 13.125 69.0962 12.6609C69.8174 12.1969 70.7218 11.9614 71.8128 11.9614H71.9702C73.6031 11.9614 74.8442 12.4982 75.6863 13.5683C76.5283 14.6419 76.953 16.183 76.953 18.1951V25.925H73.2882V17.8696C73.2882 17.0038 73.0283 16.325 72.5121 15.8263C71.9922 15.3276 71.3112 15.0783 70.4691 15.0783C69.5538 15.0783 68.8253 15.3553 68.2798 15.9129C67.7343 16.4705 67.4633 17.1977 67.4633 18.0947V25.925H63.7985Z" fill="#111111"/>
<path d="M84.9376 26.2757C83.356 26.2757 82.0965 25.8948 81.1556 25.1294C80.2147 24.364 79.7461 23.2939 79.7461 21.9121C79.7461 20.4333 80.3135 19.3389 81.4448 18.6324C82.5798 17.9259 84.1028 17.5727 86.0176 17.5727H88.9429V17.448C88.9429 15.9034 88.1155 15.1277 86.4643 15.1277C86.0249 15.1277 85.4977 15.1346 84.8827 15.1519C84.2676 15.1692 83.6489 15.19 83.0228 15.2143C82.3967 15.2385 81.8402 15.2697 81.3497 15.3008V12.3571C81.9464 12.3086 82.664 12.2671 83.4988 12.2324C84.3335 12.1978 85.1023 12.184 85.8053 12.184C88.002 12.184 89.6568 12.603 90.7735 13.4446C91.8901 14.2827 92.4466 15.6437 92.4466 17.5207V25.9225H89.547V23.3285C88.8989 25.2956 87.3613 26.2757 84.9376 26.2757ZM85.9664 23.8065C86.457 23.8065 86.9256 23.7199 87.3649 23.5433C87.8043 23.3701 88.1704 23.0688 88.4596 22.6463C88.7488 22.2238 88.9136 21.6454 88.9465 20.9147V19.6437H85.9664C85.1243 19.6437 84.4763 19.8376 84.0296 20.229C83.583 20.6203 83.356 21.1225 83.356 21.7389C83.356 22.3692 83.5793 22.8749 84.0296 23.2489C84.4763 23.6195 85.1206 23.8065 85.9664 23.8065Z" fill="#111111"/>
<path d="M96.3781 25.925V7.72241H100.043V18.9189L105.553 12.3873H109.375L104.499 18.1466L110.536 25.925H106.399L101.603 19.5908H100.047V25.925H96.3781Z" fill="#111111"/>
<path d="M116.489 26.2757C114.908 26.2757 113.648 25.8948 112.707 25.1294C111.766 24.364 111.298 23.2939 111.298 21.9121C111.298 20.4333 111.865 19.3389 112.996 18.6324C114.131 17.9259 115.654 17.5727 117.569 17.5727H120.495V17.448C120.495 15.9034 119.667 15.1277 118.016 15.1277C117.577 15.1277 117.049 15.1346 116.434 15.1519C115.819 15.1692 115.2 15.19 114.574 15.2143C113.952 15.2385 113.392 15.2697 112.901 15.3008V12.3571C113.498 12.3086 114.216 12.2671 115.05 12.2324C115.885 12.1978 116.654 12.184 117.357 12.184C119.554 12.184 121.208 12.603 122.325 13.4446C123.442 14.2827 123.998 15.6437 123.998 17.5207V25.9225H121.099V23.3285C120.454 25.2956 118.917 26.2757 116.489 26.2757ZM117.518 23.8065C118.009 23.8065 118.477 23.7199 118.917 23.5433C119.356 23.3701 119.722 23.0688 120.011 22.6463C120.3 22.2238 120.465 21.6454 120.498 20.9147V19.6437H117.518C116.676 19.6437 116.028 19.8376 115.581 20.229C115.135 20.6203 114.908 21.1225 114.908 21.7389C114.908 22.3692 115.131 22.8749 115.581 23.2489C116.028 23.6195 116.676 23.8065 117.518 23.8065Z" fill="#111111"/>
</svg>
